<svg xmlns="http://www.w3.org/2000/svg" viewBox="0 0 32 32" width="32" height="32">
  <defs>
    <linearGradient id="boxGradient" x1="0%" y1="0%" x2="100%" y2="100%">
      <stop offset="0%" style="stop-color:#3B82F6;stop-opacity:1" />
      <stop offset="100%" style="stop-color:#1E40AF;stop-opacity:1" />
    </linearGradient>
    <linearGradient id="checkGradient" x1="0%" y1="0%" x2="100%" y2="100%">
      <stop offset="0%" style="stop-color:#10B981;stop-opacity:1" />
      <stop offset="100%" style="stop-color:#059669;stop-opacity:1" />
    </linearGradient>
  </defs>
  
  <!-- Fondo del contenedor/caja -->
  <rect x="4" y="6" width="24" height="20" rx="3" ry="3" fill="url(#boxGradient)" stroke="#1E40AF" stroke-width="1"/>
  
  <!-- Líneas de inventario -->
  <rect x="7" y="10" width="10" height="1.5" rx="0.75" fill="#E5E7EB"/>
  <rect x="7" y="13" width="8" height="1.5" rx="0.75" fill="#E5E7EB"/>
  <rect x="7" y="16" width="12" height="1.5" rx="0.75" fill="#E5E7EB"/>
  <rect x="7" y="19" width="6" height="1.5" rx="0.75" fill="#E5E7EB"/>
  
  <!-- Checkbox/check mark -->
  <circle cx="23" cy="12" r="4" fill="url(#checkGradient)" stroke="#059669" stroke-width="1"/>
  <path d="M21 12l2 2 4-4" stroke="white" stroke-width="2" fill="none" stroke-linecap="round" stroke-linejoin="round"/>
  
  <!-- Pequeño detalle de código de barras -->
  <rect x="19" y="19" width="1" height="4" fill="#6B7280"/>
  <rect x="21" y="19" width="0.5" height="4" fill="#6B7280"/>
  <rect x="22.5" y="19" width="1" height="4" fill="#6B7280"/>
  <rect x="24.5" y="19" width="0.5" height="4" fill="#6B7280"/>
  <rect x="26" y="19" width="1" height="4" fill="#6B7280"/>
</svg>
